<svg fill="#FFC107" xmlns="http://www.w3.org/2000/svg" xmlns:xlink="http://www.w3.org/1999/xlink" version="1.1" x="0px" y="0px" viewBox="0 0 100 100" enable-background="new 0 0 100 100" xml:space="preserve"><path fill="#FFC107" d="M83.014,23.651c3.252-1.55,5.508-4.86,5.508-8.705L85.305,3.002H14.546l-3.217,11.944  c0,3.733,2.125,6.966,5.228,8.57v34.315h-2.738V92.42h2.738v3.217h4.421V92.42h57.614v3.217h4.422V92.42h2.935V57.831h-2.935V23.651  z M20.978,57.831V24.595c5.33,0,9.65-4.319,9.65-9.648c0,5.329,4.32,9.648,9.648,9.648c5.33,0,9.649-4.319,9.649-9.648  c0,5.329,4.32,9.648,9.648,9.648c5.33,0,9.649-4.319,9.649-9.648c0,5.234,4.172,9.485,9.369,9.636v33.249H20.978z"></path></svg>