<svg xmlns="http://www.w3.org/2000/svg" xmlns:xlink="http://www.w3.org/1999/xlink" version="1.1" x="0px" y="0px" viewBox="0 0 95 95" enable-background="new 0 0 95 95" xml:space="preserve"><g><path d="M47.485,30.067c-8.783,0-15.903,4.035-15.903,9.013c0,4.977,7.12,9.011,15.903,9.011c8.781,0,15.901-4.034,15.901-9.011   C63.386,34.103,56.266,30.067,47.485,30.067z M47.485,47.581c-8.286,0-15.004-3.807-15.004-8.501c0-4.696,6.718-8.503,15.004-8.503   c8.285,0,15.002,3.807,15.002,8.503C62.487,43.774,55.77,47.581,47.485,47.581z"></path><path d="M47.485,30.854c-8.016,0-14.514,3.685-14.514,8.227c0,4.542,6.498,8.227,14.514,8.227c8.015,0,14.512-3.685,14.512-8.227   C61.997,34.539,55.5,30.854,47.485,30.854z M47.485,46.799c-7.523,0-13.621-3.455-13.621-7.719c0-4.263,6.098-7.72,13.621-7.72   c7.521,0,13.62,3.457,13.62,7.72C61.104,43.344,55.006,46.799,47.485,46.799z"></path><path d="M60.646,39.079c0,4.122-5.891,7.458-13.159,7.458c-7.269,0-13.165-3.336-13.165-7.458c0-4.118,5.896-7.459,13.165-7.459   C54.755,31.62,60.646,34.961,60.646,39.079z"></path><path d="M47.492,29.056c-9.769,0-17.688,4.488-17.688,10.025c0,5.535,7.919,10.022,17.688,10.022   c9.768,0,17.687-4.487,17.687-10.022C65.179,33.544,57.26,29.056,47.492,29.056z M47.492,48.536   c-9.217,0-16.689-4.233-16.689-9.455c0-5.225,7.472-9.458,16.689-9.458c9.215,0,16.688,4.233,16.688,9.458   C64.18,44.303,56.707,48.536,47.492,48.536z"></path><path d="M47.492,27.95c-10.845,0-19.637,4.982-19.637,11.13c0,6.146,8.792,11.128,19.637,11.128   c10.843,0,19.636-4.982,19.636-11.128C67.128,32.933,58.335,27.95,47.492,27.95z M47.492,49.577   c-10.231,0-18.528-4.7-18.528-10.497c0-5.8,8.296-10.499,18.528-10.499c10.23,0,18.526,4.699,18.526,10.499   C66.019,44.877,57.723,49.577,47.492,49.577z"></path><path d="M47.492,26.692c-12.071,0-21.857,5.546-21.857,12.39c0,6.84,9.786,12.386,21.857,12.386   c12.069,0,21.856-5.546,21.856-12.386C69.349,32.239,59.562,26.692,47.492,26.692z M47.492,50.766   c-11.39,0-20.623-5.231-20.623-11.684c0-6.456,9.233-11.687,20.623-11.687c11.388,0,20.621,5.231,20.621,11.687   C68.113,45.534,58.88,50.766,47.492,50.766z"></path><path d="M47.492,25.328c-13.401,0-24.266,6.157-24.266,13.753c0,7.593,10.864,13.751,24.266,13.751   c13.399,0,24.265-6.158,24.265-13.751C71.757,31.484,60.892,25.328,47.492,25.328z M47.492,52.052   c-12.643,0-22.895-5.808-22.895-12.971c0-7.167,10.252-12.974,22.895-12.974s22.894,5.808,22.894,12.974   C70.386,46.244,60.135,52.052,47.492,52.052z"></path><path d="M47.478,22.137c-16.508,0-29.892,7.585-29.892,16.942c0,9.354,13.383,16.939,29.892,16.939   c16.507,0,29.892-7.585,29.892-16.939C77.369,29.722,63.984,22.137,47.478,22.137z M47.478,55.06   c-15.575,0-28.202-7.154-28.202-15.98c0-8.828,12.627-15.982,28.202-15.982c15.574,0,28.202,7.154,28.202,15.982   C75.68,47.905,63.052,55.06,47.478,55.06z"></path><path d="M47.478,23.614c-15.066,0-27.282,6.927-27.282,15.465c0,8.539,12.215,15.462,27.282,15.462   c15.068,0,27.282-6.923,27.282-15.462C74.76,30.542,62.546,23.614,47.478,23.614z M47.478,53.59   c-14.14,0-25.603-6.497-25.603-14.511c0-8.012,11.463-14.513,25.603-14.513c14.141,0,25.604,6.5,25.604,14.513   C73.081,47.093,61.618,53.59,47.478,53.59z"></path><path d="M47.492,20.235c-18.363,0-33.25,8.437-33.25,18.846c0,10.405,14.886,18.841,33.25,18.841   c18.361,0,33.247-8.436,33.247-18.841C80.739,28.672,65.854,20.235,47.492,20.235z M47.492,56.854   c-17.324,0-31.37-7.959-31.37-17.773c0-9.821,14.046-17.777,31.37-17.777s31.369,7.957,31.369,17.777   C78.861,48.896,64.816,56.854,47.492,56.854z"></path><path d="M47.492,18.158c-20.386,0-36.913,9.366-36.913,20.921c0,11.55,16.526,20.917,36.913,20.917   c20.385,0,36.911-9.367,36.911-20.917C84.403,27.524,67.877,18.158,47.492,18.158z M47.492,58.811   c-19.232,0-34.826-8.836-34.826-19.731c0-10.902,15.594-19.736,34.826-19.736s34.826,8.834,34.826,19.736   C82.318,49.975,66.725,58.811,47.492,58.811z"></path><path d="M47.492,15.795c-22.691,0-41.085,10.425-41.085,23.288c0,12.856,18.395,23.282,41.085,23.282   c22.688,0,41.086-10.426,41.086-23.282C88.578,26.22,70.181,15.795,47.492,15.795z M47.492,61.046   c-21.407,0-38.765-9.836-38.765-21.963c0-12.135,17.357-21.969,38.765-21.969c21.406,0,38.764,9.834,38.764,21.969   C86.256,51.21,68.898,61.046,47.492,61.046z"></path><path d="M47.492,13.228c-25.191,0-45.613,11.574-45.613,25.853c0,14.272,20.422,25.849,45.613,25.849   c25.188,0,45.611-11.576,45.611-25.849C93.104,24.802,72.681,13.228,47.492,13.228z M47.492,63.461   c-23.766,0-43.035-10.915-43.035-24.38c0-13.472,19.269-24.388,43.035-24.388c23.767,0,43.036,10.916,43.036,24.388   C90.528,52.546,71.259,63.461,47.492,63.461z"></path><path d="M42.741,79c0-15.049-7.67-15.641-7.67-15.641l-0.749,0.173c0,0,7.813,0.921,7.813,15.468H42.741z"></path><path d="M38.461,34.026c0-17.053-8.761-17.758-8.761-17.758l-0.853,0.22c0,0,8.924,1.125,8.924,17.689L38.461,34.026z"></path><path d="M44.954,79c0-14.883-5.51-15.468-5.51-15.468l-0.273,0.602c0,0,5.419,0.479,5.419,14.866H44.954z"></path><path d="M43.929,79c0-14.883-6.348-15.468-6.348-15.468l-0.306,0.569c0,0,6.247,0.511,6.247,14.898H43.929z"></path><path d="M46.441,79c0-14.706-3.571-15.284-3.571-15.284l-0.129,0.614c0,0,3.434,0.453,3.434,14.67H46.441z"></path><path d="M45.931,79C45.931,64.294,41,63.639,41,63.639v0.586c0,0,4.619,0.559,4.619,14.775H45.931z"></path><path d="M46.86,79c0-14.706-2.368-15.226-2.368-15.226l-0.184,0.64c0,0,2.369,0.369,2.369,14.586H46.86z"></path><path d="M47.224,79c0-14.706-1.354-15.226-1.354-15.226l-0.084,0.549c0,0,1.264,0.46,1.264,14.677H47.224z"></path><path d="M48.466,79c0-14.706,3.57-15.284,3.57-15.284l0.062,0.623c0,0-3.396,0.444-3.396,14.661H48.466z"></path><path d="M48.952,79c0-14.706,4.492-15.361,4.492-15.361l-0.114,0.685c0,0-4.141,0.46-4.141,14.677H48.952z"></path><path d="M48.063,79c0-14.706,2.413-15.284,2.413-15.284l0.251,0.554c0,0-2.478,0.514-2.478,14.73H48.063z"></path><path d="M49.634,79c0-14.883,5.262-15.468,5.262-15.468l0.237,0.602c0,0-5.114,0.479-5.114,14.866H49.634z"></path><path d="M50.566,79c0-14.883,6.029-15.468,6.029-15.468l0.273,0.602c0,0-5.815,0.479-5.815,14.866H50.566z"></path><path d="M51.758,79c0-15.049,7.67-15.641,7.67-15.641l0.364,0.608c0,0-7.431,0.485-7.431,15.032H51.758z"></path><polygon points="47.552,79 47.431,79 47.37,64 47.613,64  "></polygon><path d="M23.227,17.187L23.227,17.187z"></path><path d="M35.26,37.296c-11.291-19.142-21.59-14.134-21.59-14.134l-0.813,0.813c0,0,10.762-4.646,21.73,13.949L35.26,37.296z"></path><path d="M56.218,33.857c0-17.051,8.76-17.589,8.76-17.589l0.853,0.22c0,0-8.923,1.125-8.923,17.689L56.218,33.857z"></path><path d="M59.906,37.296c11.29-19.142,21.59-14.134,21.59-14.134l0.813,0.813c0,0-10.984-4.524-21.952,14.07L59.906,37.296z"></path><rect x="47" y="14" width="1" height="19"></rect><path d="M34.781,40.687c-25.188-4.32-28.449,8.441-28.449,8.441l0.905,1.317c0,0,3.554-13.155,28.023-8.96L34.781,40.687z"></path><path d="M59.915,40.687c25.188-4.32,28.449,8.441,28.449,8.441l-0.904,1.317c0,0-3.554-13.155-28.023-8.96L59.915,40.687z"></path><path d="M41.264,45.39c-14.427,9.635-9.889,17.319-9.889,17.319l2.279,0.457c0,0-5.801-8.302,8.214-17.66L41.264,45.39z"></path><path d="M53.765,45.303c14.427,9.635,9.351,16.919,9.351,16.919l-2.279,0.457c0,0,6.35-7.814-7.665-17.173L53.765,45.303z"></path><path d="M47.727,79c0-14.706,1.21-15.284,1.21-15.284l0.136,0.594c0,0-1.155,0.474-1.155,14.69H47.727z"></path><g><path d="M41.098,70.708c1.294,0.717,7.113,3.504,12.309-0.252l0.064-0.368c-5.086,3.9-10.802,1.229-12.414,0.359L41.098,70.708z"></path></g><g><path d="M40.513,68.546c1.419,0.787,7.803,3.844,13.505-0.276l0.07-0.404c-5.58,4.279-11.852,1.35-13.62,0.395L40.513,68.546z"></path></g><g><path d="M41.833,74.66c1.459,0.895,5.999,3.509,10.698-0.254l0.056-0.237c-4.354,3.697-9.247,1.165-10.627,0.34L41.833,74.66z"></path></g><g><path d="M41.833,72.711c1.459,0.895,6.188,3.473,10.887-0.29l-0.133-0.201c-4.354,3.697-9.247,1.166-10.627,0.341L41.833,72.711z"></path></g><g><path d="M41.995,76.019c1.403,0.924,5.945,3.586,10.459-0.299l-0.127-0.207c-4.184,3.817-8.885,1.203-10.211,0.352L41.995,76.019z    "></path></g><g><path d="M42.146,77.382c1.367,0.798,5.796,3.095,10.198-0.257l-0.125-0.18c-4.078,3.294-8.662,1.038-9.955,0.304L42.146,77.382z"></path></g><g><path d="M37.806,65.139c2.064,1.174,11.348,5.73,19.64-0.411l0.104-0.603c-8.115,6.379-17.236,2.012-19.808,0.589L37.806,65.139z"></path></g></g></svg>