<svg fill="#FF5722" xmlns="http://www.w3.org/2000/svg" xmlns:xlink="http://www.w3.org/1999/xlink" version="1.1" x="0px" y="0px" viewBox="0 0 100 100" enable-background="new 0 0 100 100" xml:space="preserve"><path d="M11.752,42.457v19.562h11.825v-8.646V42.457h-5.733H11.752z M16.508,55.15h-1.006v-5.096h1.006V55.15z M18.779,50.054h1.006  v5.096h-1.006V50.054z M55.274,34.086h-11.58v8.372H24.583v10.916h30.691V34.086z M51.791,49.374H38.005v-1.006h13.787V49.374z   M24.583,62.019h46.043v-7.64H24.583V62.019z M55.909,56.606h1.006v3.459h-1.006V56.606z M52.632,56.606h1.006v3.459h-1.006V56.606z   M49.356,56.606h1.006v3.459h-1.006V56.606z M46.08,56.606h1.006v3.459H46.08V56.606z M47.355,15.241L45.763,33.08h1.514l0.36-4.048  l4.444,4.048h1.9l-1.593-17.839H47.355z M51.252,21.914l-3.287,3.452l0.631-7.066L51.252,21.914z M49.329,16.749h1.681l0.233,2.603  L49.329,16.749z M52.304,31.243l-4.203-3.83l3.53-3.71L52.304,31.243z M87.279,19.199l-7.665,10.14L56.596,42.396l-0.128,0.073  v1.733l20.852-11.825L61.449,53.374h1.89l4.081-5.401l2.311,5.401h2.861l19.246-32.666h2.825v-1.508H87.279z M80.65,36.144  l-4.787,0.662l4.192-5.547L80.65,36.144z M73.878,39.432l1.614,5.235l-6.197,0.827L73.878,39.432z M80.048,37.75l-3.355,5.693  l-1.548-5.015L80.048,37.75z M85.299,28.836l-3.331,5.653l-0.562-4.615L85.299,28.836z M86.049,27.075l-3.546,0.946l3.12-4.127  L86.049,27.075z M90.088,20.708l-2.747,4.662l-0.427-3.186l1.116-1.476H90.088z M68.688,47.097l6.351-0.847l-3.889,6.603  L68.688,47.097z M4.663,36.035v1.508H18.85v3.908h4.727v-3.908h1.697v-1.508H4.663z M26.324,79.287l0.024-6.618l3.193-9.644h-4.958  h-1.006h-3.784l3.22,9.803v6.46h-1.006h-5.026v1.406h29.212v-1.406H27.328H26.324z M60.595,79.287h-1.004l0.024-6.618l3.193-9.644  h-9.747l3.219,9.803v6.46h-1.006h-6.99v1.406h37.439v-1.406H60.595z M39.101,83.571h28.067v-1.406H39.101V83.571z M24.932,83.571  h11.964v-1.406H24.932V83.571z M6.062,80.693h8.827v-1.406H6.062V80.693z"></path></svg>