<svg fill="#2196F3" xmlns="http://www.w3.org/2000/svg" xmlns:xlink="http://www.w3.org/1999/xlink" version="1.1" x="0px" y="0px" viewBox="0 0 341.848 514.444" style="enable-background:new 0 0 341.848 514.444;" xml:space="preserve"><g><path d="M302.719,342.941l3.98-0.385c-0.168-1.743-0.433-3.481-0.843-5.2l-3.893,0.924h0.002   C302.323,339.789,302.564,341.348,302.719,342.941z"></path><path d="M293.311,321.607c-1.751-0.523-3.598-0.753-5.495-0.753v4.001c1.574-0.003,3.03,0.19,4.346,0.587L293.311,321.607z"></path><path d="M297.386,328.88c0.094,0.112,0.188,0.226,0.277,0.337l3.123-2.496c-0.105-0.136-0.215-0.269-0.326-0.403   c-1.163-1.395-2.505-2.514-3.978-3.356l-1.988,3.47C295.558,327.043,296.517,327.838,297.386,328.88z"></path><polygon points="280.439,325.968 280.439,325.968 280.437,325.968  "></polygon><path d="M306.937,350.782c0.013-0.74,0.022-1.484,0.022-2.231c0-0.959-0.013-1.922-0.051-2.888l-3.998,0.156   c0.035,0.904,0.051,1.815,0.049,2.732c0.002,0.714-0.009,1.43-0.022,2.148L306.937,350.782z"></path><path d="M284.562,321.062c-1.697,0.21-3.429,0.569-5.181,1.049l1.058,3.857c1.596-0.435,3.141-0.755,4.613-0.936L284.562,321.062z"></path><path d="M264.238,328.532l1.916,3.51h0.002c1.443-0.788,2.901-1.541,4.359-2.242l-1.732-3.607   C267.255,326.93,265.735,327.713,264.238,328.532z"></path><path d="M271.582,324.911l1.596,3.669c1.52-0.661,3.028-1.254,4.511-1.763l-1.296-3.783   C274.794,323.582,273.187,324.215,271.582,324.911z"></path><path d="M304.954,334.275c-0.589-1.668-1.344-3.306-2.303-4.887l-3.42,2.076c0.808,1.329,1.444,2.708,1.95,4.143L304.954,334.275z"></path><path d="M71.979,320.465h-0.002c-1.559-0.608-3.147-1.202-4.759-1.766l-1.324,3.774c1.563,0.549,3.108,1.123,4.627,1.717   L71.979,320.465z"></path><path d="M58.39,320.113c1.573,0.435,3.146,0.909,4.707,1.415l1.234-3.804c-1.614-0.523-3.243-1.016-4.881-1.467L58.39,320.113z"></path><polygon points="56.485,315.486 56.484,315.488 56.485,315.488  "></polygon><path d="M50.764,318.362c1.582,0.284,3.179,0.626,4.778,1.012l0.942-3.886c-1.669-0.406-3.343-0.764-5.012-1.065L50.764,318.362z"></path><path d="M35.476,317.747c0.811-0.116,1.644-0.198,2.487-0.257c0.643,1.568,1.332,3.094,2.061,4.578l3.59-1.762   c-0.705-1.44-1.372-2.917-1.994-4.436l-1.429,0.586l-0.039-3.06h-0.003c-0.097,0.001-0.191,0.01-0.288,0.012l0.71-0.257   c-0.26-0.714-0.507-1.438-0.745-2.169c-0.269-0.831-0.501-1.634-0.695-2.408l-3.88,0.98c0.22,0.863,0.476,1.752,0.77,2.661   c0.154,0.473,0.319,0.935,0.48,1.4c-0.531,0.053-1.064,0.096-1.588,0.17L35.476,317.747z"></path><path d="M15.096,355.414l-3.996,0.173c0.074,1.718,0.162,3.392,0.258,5.021l3.994-0.239   C15.256,358.763,15.171,357.111,15.096,355.414z"></path><polygon points="31.778,314.38 31.778,314.381 31.78,314.38  "></polygon><path d="M28.354,319.754c1.37-0.624,2.826-1.114,4.363-1.484l-0.939-3.889c-1.759,0.423-3.46,0.995-5.081,1.731L28.354,319.754z"></path><path d="M15.452,339.822l-3.96-0.57v-0.002c-0.235,1.629-0.403,3.343-0.502,5.149l3.994,0.218   C15.076,342.922,15.234,341.325,15.452,339.822z"></path><path d="M74.799,321.601l-1.524,3.698c1.552,0.641,3.069,1.296,4.543,1.956l1.635-3.651   C77.945,322.929,76.392,322.258,74.799,321.601z"></path><path d="M20.65,325.935l-3.204-2.397c-1.035,1.383-1.96,2.92-2.767,4.618l3.614,1.714C18.992,328.4,19.779,327.096,20.65,325.935z"></path><path d="M17.225,332.455l-3.767-1.349c-0.563,1.573-1.037,3.26-1.42,5.066L15.952,337C16.3,335.358,16.727,333.844,17.225,332.455z   "></path><path d="M43.076,317.45c1.571,0.079,3.179,0.233,4.808,0.455l0.54-3.965c-1.731-0.235-3.45-0.401-5.149-0.484L43.076,317.45z"></path><path d="M10.983,352.572l3.999-0.137c-0.021-0.626-0.043-1.255-0.059-1.893c-0.025-0.762-0.036-1.503-0.036-2.231   c0-0.263,0.002-0.525,0.004-0.784l-3.999-0.043c-0.004,0.273-0.006,0.549-0.006,0.826c0,0.767,0.013,1.552,0.038,2.355   C10.941,351.301,10.963,351.938,10.983,352.572z"></path><path d="M25.947,321.043l-2.122-3.39c-1.522,0.952-2.948,2.083-4.25,3.407l2.848,2.807   C23.505,322.771,24.682,321.835,25.947,321.043z"></path><path d="M46.579,285.207l1.507,3.705c1.397-0.569,2.901-1.04,4.48-1.421l-0.941-3.889C49.884,284.024,48.19,284.551,46.579,285.207   z"></path><path d="M54.695,282.972l0.678,3.942c1.568-0.268,3.177-0.464,4.792-0.599l-0.331-3.986   C58.117,282.471,56.394,282.68,54.695,282.972z"></path><path d="M70.901,286.183c1.749,0.083,3.4,0.211,4.896,0.351l0.379-3.982h-0.002c-1.549-0.147-3.26-0.277-5.082-0.364   L70.901,286.183z"></path><path d="M37.06,292.526c-1.006,1.528-1.774,3.262-2.24,5.19l3.889,0.94c0.362-1.492,0.936-2.781,1.69-3.927l-3.337-2.203H37.06z"></path><path d="M61.968,345.664c-1.1-1.18-2.214-2.401-3.331-3.665l-2.995,2.651c1.144,1.293,2.281,2.539,3.399,3.739L61.968,345.664z"></path><path d="M56.698,339.762c-1.047-1.232-2.088-2.501-3.115-3.812l-3.147,2.467c1.062,1.355,2.138,2.668,3.214,3.933L56.698,339.762z"></path><path d="M39.213,289.899l2.823,2.834c1.008-1.004,2.208-1.879,3.566-2.636l-1.948-3.495   C42.023,287.51,40.522,288.597,39.213,289.899z"></path><path d="M67.465,351.438c-1.112-1.159-2.27-2.359-3.454-3.603l-2.898,2.757l-0.003-0.002c1.198,1.259,2.361,2.465,3.472,3.62   L67.465,351.438z"></path><path d="M62.913,282.139l0.164,3.995c1.106-0.044,2.205-0.064,3.288-0.064c0.537,0,1.069,0.004,1.596,0.013l0.072-3.997v-0.002   c-0.55-0.009-1.105-0.015-1.668-0.013C65.233,282.068,64.079,282.09,62.913,282.139z"></path><path d="M51.798,333.606c-0.962-1.298-1.903-2.631-2.819-4.008l-3.33,2.216c0.956,1.436,1.937,2.825,2.934,4.172L51.798,333.606z"></path><path d="M47.396,327.129c-0.849-1.368-1.664-2.776-2.444-4.223l-3.521,1.896c0.82,1.522,1.677,2.998,2.563,4.432L47.396,327.129z"></path><path d="M34.285,302.408c0.002,1.278,0.108,2.621,0.326,4.025l3.952-0.611c-0.189-1.221-0.277-2.356-0.277-3.413   c0-0.39,0.013-0.769,0.036-1.138l-3.992-0.251C34.3,301.473,34.285,301.938,34.285,302.408z"></path><path d="M81.924,325.486l-1.403,3.004c0.478,0.224,0.938,0.445,1.403,0.667v18.572c-5.859,2.124-11.345,4.449-16.394,6.959   c-5.487-1.49-11.311-2.109-17.305-1.682c-12.645,0.903-23.901,6.266-32.355,14.435c-0.116-1.335-0.226-2.697-0.326-4.101   l-3.99,0.282h0.002c0.12,1.723,0.255,3.397,0.404,5.019l2.979-0.27C4.843,378.63-0.972,393.004,0.134,408.489   c1.728,24.216,19.795,43.355,42.65,47.424c-0.103,0.548-0.201,1.099-0.283,1.654h-8.738v12.424h8.739   c0.479,3.26,1.335,6.396,2.512,9.37l-7.57,4.371l6.214,10.76l7.577-4.375c2.017,2.539,4.316,4.838,6.856,6.855l-4.375,7.577   l10.76,6.214l4.371-7.57c2.974,1.177,6.109,2.033,9.369,2.512v8.739H90.64v-8.739c3.261-0.479,6.396-1.335,9.371-2.513l4.371,7.571   l10.756-6.214l-4.373-7.575c2.539-2.017,4.84-4.318,6.856-6.857l7.577,4.375l6.213-10.76l-7.569-4.371   c1.177-2.975,2.033-6.11,2.512-9.371h5.905v3.862h6.669c0.365,2.488,1.019,4.881,1.917,7.151l-5.777,3.335l4.742,8.211l5.782-3.338   c1.539,1.938,3.295,3.693,5.232,5.232l-3.339,5.782l8.211,4.742l3.336-5.778c2.27,0.898,4.662,1.552,7.15,1.917v6.669h9.481v-6.669   c2.488-0.365,4.882-1.019,7.152-1.917l3.336,5.778l8.208-4.742l-3.338-5.781c1.938-1.54,3.694-3.295,5.233-5.233l5.782,3.338   l4.741-8.211l-5.776-3.335c0.899-2.27,1.552-4.663,1.917-7.151h6.669v-3.862h5.905c0.479,3.26,1.335,6.396,2.512,9.37l-7.57,4.371   l6.214,10.76l7.577-4.375c2.017,2.539,4.316,4.838,6.855,6.855l-4.375,7.577l10.76,6.214l4.371-7.57   c2.974,1.177,6.109,2.033,9.369,2.512v8.739h12.425v-8.739c3.261-0.479,6.397-1.335,9.371-2.513l4.371,7.571l10.756-6.214   l-4.373-7.575c2.538-2.017,4.84-4.318,6.857-6.857l7.577,4.375l6.213-10.76l-7.569-4.371c1.177-2.975,2.033-6.11,2.512-9.371h8.739   v-12.424h-8.738c-0.082-0.558-0.181-1.11-0.284-1.661c7.647-1.361,15.104-4.454,21.77-9.392   c23.041-17.069,27.88-49.585,10.81-72.627c-2.972-4.011-6.418-7.456-10.194-10.344l2.325,1.253c0.815-1.519,1.6-3.006,2.344-4.463   l-3.56-1.822c-0.702,1.371-1.441,2.773-2.209,4.202c-4.195-3.035-8.775-5.382-13.572-7.023c0.023-0.624,0.047-1.248,0.068-1.879   l-3.995-0.143c-0.01,0.28-0.018,0.559-0.029,0.839c-8.624-2.207-17.767-2.187-26.501,0.182c-5.049-2.51-10.535-4.836-16.395-6.96   v-12.025c1.198-0.749,2.418-1.492,3.66-2.213l-2.008-3.46c-0.557,0.323-1.104,0.652-1.652,0.981v-19.816   c0.425-0.159,0.874-0.325,1.374-0.507l-1.369-3.759c-0.002,0.001-0.003,0.001-0.005,0.002V174.6c0-38.66-31.34-70-70-70h-15.667   v-9.77c5.748-1.482,10.001-6.686,10.001-12.896c0-7.364-5.971-13.334-13.334-13.334c-7.363,0-13.334,5.97-13.334,13.334   c0,6.21,4.253,11.414,10.001,12.896v9.77h-15.667c-38.66,0-70,31.34-70,70v108.647c-0.756-0.112-1.66-0.238-2.711-0.367   l-0.483,3.972c1.314,0.16,2.386,0.315,3.194,0.441V325.486z M175.497,289.697l4.864,45.723c-5.342,0.183-10.742,0.212-16.102,0.083   l4.873-45.806H175.497z M268.563,463.778c0,6.156-4.987,11.143-11.142,11.143c-6.156,0-11.145-4.987-11.145-11.143   c0-6.154,4.989-11.144,11.145-11.144C263.575,452.635,268.563,457.624,268.563,463.778z M170.925,477.615   c-3.453,0-6.42-2.06-7.752-5.016h15.501C177.342,475.555,174.377,477.615,170.925,477.615z M95.57,463.778   c0,6.156-4.987,11.143-11.142,11.143c-6.156,0-11.146-4.987-11.146-11.143c0-6.154,4.989-11.144,11.146-11.144   C90.583,452.635,95.57,457.624,95.57,463.778z M130.361,383.068l5.883,3.396l1.35-2.336l-5.879-3.391   c3.746-6.056,8.862-11.172,14.918-14.918l3.394,5.879l2.335-1.35l-3.398-5.884c6.095-3.29,13.023-5.228,20.382-5.441v12.679h2.694   v-12.679c7.36,0.213,14.287,2.15,20.382,5.44l-3.398,5.888l2.335,1.347l3.395-5.879c6.055,3.746,11.17,8.861,14.916,14.916   l-5.879,3.395l1.348,2.336l5.886-3.4c3.29,6.095,5.228,13.022,5.441,20.382h-12.676l-0.002,2.695h12.678   c-0.214,7.359-2.15,14.286-5.441,20.379l-5.886-3.396l-1.348,2.335l5.879,3.393c-3.746,6.055-8.861,11.17-14.917,14.916   l-3.395-5.876l-2.335,1.35l3.397,5.882c-6.095,3.29-13.022,5.227-20.381,5.44v-12.675h-2.694v12.675   c-7.359-0.213-14.286-2.15-20.381-5.441l3.395-5.88l-2.333-1.35l-3.393,5.876c-6.055-3.745-11.17-8.86-14.916-14.914l5.876-3.394   l-1.35-2.335l-5.882,3.396c-3.29-6.093-5.227-13.02-5.441-20.379h12.676l-0.001-2.695h-12.675   C125.134,396.089,127.071,389.163,130.361,383.068z M81.01,448.137c-0.275,0.06-0.545,0.136-0.815,0.21   c0.164-0.107,0.324-0.22,0.487-0.329C80.791,448.058,80.901,448.097,81.01,448.137z M261.633,448.341   c-0.264-0.072-0.526-0.146-0.795-0.204c0.103-0.038,0.207-0.075,0.31-0.113C261.309,448.131,261.471,448.236,261.633,448.341z    M30.196,445.125l3.396-5.88l-2.333-1.35l-3.393,5.876c-6.055-3.745-11.17-8.86-14.916-14.914l5.876-3.394l-1.35-2.335   l-5.882,3.396c-3.29-6.093-5.228-13.02-5.441-20.379h12.676l-0.001-2.695H6.153c0.213-7.36,2.15-14.287,5.441-20.381l5.883,3.396   l1.35-2.336l-5.879-3.391c3.746-6.056,8.862-11.172,14.918-14.918l3.394,5.879l2.335-1.35l-3.399-5.884   c6.095-3.29,13.023-5.228,20.382-5.441v12.679h2.694v-12.679c7.36,0.213,14.287,2.15,20.382,5.44l-3.398,5.888l2.335,1.347   l3.396-5.879c6.055,3.746,11.17,8.861,14.916,14.916l-5.879,3.395l1.348,2.336l5.886-3.4c3.29,6.095,5.228,13.022,5.44,20.382   H85.021l-0.002,2.695h12.678c-0.214,7.359-2.15,14.286-5.44,20.379l-5.886-3.396l-1.348,2.335l5.879,3.393   c-3.746,6.055-8.861,11.17-14.917,14.916l-3.395-5.876l-2.335,1.35l3.397,5.882c-6.095,3.29-13.021,5.227-20.381,5.44v-12.675   h-2.694v12.675C43.218,450.353,36.291,448.415,30.196,445.125z M84.424,496.906c-18.297,0-33.123-14.828-33.123-33.128   c0-2.429,0.268-4.795,0.766-7.076c1.178-0.004,2.36-0.034,3.553-0.119c6.43-0.458,12.497-2.078,18.024-4.624   c-3.208,2.928-5.232,7.13-5.232,11.815c0,8.853,7.168,16.021,16.018,16.021c8.847,0,16.016-7.168,16.016-16.021   c0-4.129-1.576-7.88-4.142-10.72c3.218,0.897,6.517,1.74,9.896,2.521c3.499,3.023,7.298,5.705,11.352,7.995   c0,0.069,0.005,0.138,0.005,0.207C117.555,482.078,102.721,496.906,84.424,496.906z M170.921,494.393   c-12.875,0-23.491-9.624-25.068-22.072c2.003,0.172,4.024,0.279,6.071,0.279h7.289c1.501,5.052,6.172,8.736,11.712,8.736   c5.538,0,10.208-3.684,11.71-8.736h7.289c2.047,0,4.068-0.107,6.071-0.279C194.417,484.769,183.796,494.393,170.921,494.393z    M290.547,463.778c0,18.3-14.834,33.128-33.131,33.128c-18.297,0-33.123-14.828-33.123-33.128c0-0.069,0.005-0.138,0.005-0.207   c4.054-2.29,7.852-4.972,11.351-7.995c3.38-0.782,6.679-1.624,9.896-2.521c-2.566,2.84-4.143,6.591-4.143,10.72   c0,8.853,7.168,16.021,16.018,16.021c8.847,0,16.016-7.168,16.016-16.021c0-4.685-2.024-8.886-5.231-11.814   c6.785,3.117,14.156,4.732,21.58,4.758C290.279,458.994,290.547,461.355,290.547,463.778z M288.577,359.024v12.679h2.694v-12.679   c7.359,0.213,14.287,2.15,20.382,5.44l-3.398,5.888l2.335,1.347l3.396-5.879c1.156,0.715,2.282,1.475,3.366,2.287   c-0.328,0.577-0.638,1.137-0.976,1.724l3.464,1.999c0.225-0.389,0.428-0.759,0.647-1.144c3.261,2.924,6.099,6.308,8.414,10.05   l-5.879,3.395l1.348,2.336l5.886-3.4c3.29,6.095,5.227,13.022,5.44,20.382h-12.676l-0.002,2.695h12.678   c-0.214,7.359-2.15,14.286-5.44,20.379l-5.886-3.396l-1.348,2.335l5.879,3.393c-3.746,6.055-8.861,11.17-14.917,14.916   l-3.395-5.876l-2.335,1.35l3.397,5.882c-6.095,3.29-13.021,5.227-20.381,5.44v-12.675h-2.694v12.675   c-7.359-0.213-14.286-2.15-20.381-5.441l3.395-5.88l-2.333-1.35l-3.393,5.876c-6.055-3.745-11.171-8.86-14.917-14.914l5.877-3.394   l-1.35-2.335l-5.882,3.396c-3.29-6.093-5.228-13.02-5.441-20.379h12.676l-0.001-2.695h-12.675c0.213-7.36,2.15-14.287,5.441-20.381   l5.883,3.396l1.35-2.336l-5.879-3.391c3.746-6.056,8.862-11.172,14.918-14.918l3.394,5.879l2.335-1.35l-3.398-5.884   C274.29,361.175,281.218,359.238,288.577,359.024z M93.925,174.6c0-31.98,26.018-57.998,57.998-57.998h38.001   c31.982,0,58,26.018,58,57.998v137c0,11.12-18.625,18.37-42.913,21.757l-5.65-53.113v-54.285c1.145,1.069,2.403,2.408,3.779,4.131   c6.196,7.853,14.151,23.619,20.422,53.515c0.791,3.77,4.116,6.356,7.821,6.356c0.545,0,1.098-0.056,1.652-0.172   c4.324-0.909,7.093-5.151,6.184-9.476c-7.063-33.476-16.249-51.735-25.168-62.142c-4.454-5.182-8.894-8.341-12.775-10.129   c-3.878-1.799-7.135-2.194-9.042-2.188c-0.121,0-0.229,0.004-0.34,0.006c-0.088-0.003-0.174-0.013-0.262-0.013h-4.224   c-4.383,6.669-11.926,11.085-20.485,11.085c-8.148,0-15.374-4.001-19.831-10.138c-1.57,0.452-3.123,1.038-4.773,1.71   c-5.27,2.252-10.94,5.624-15.8,9.893c-2.42,2.15-4.644,4.523-6.435,7.325c-1.762,2.787-3.191,6.144-3.211,10.131   c-0.028,3.026,0.979,6.269,2.821,8.864c2.791,3.939,6.857,6.492,11.893,8.474c2.387,0.925,5.051,1.722,8.023,2.413   c0.175-1.126,0.358-2.199,0.552-3.195c-2.117-1.169-3.415-3.263-3.121-5.456c0.357-2.643,2.908-4.542,5.966-4.641   c0.36-0.885,0.687-1.587,0.964-2.126c-4.448-0.986-7.494-2.128-9.21-3.128c-1.121-0.631-1.655-1.146-1.855-1.378   c0.118-0.479,0.871-1.946,2.403-3.546c2.345-2.546,6.262-5.36,9.959-7.316v13.607c2.169,0.451,4.759,0.882,7.845,1.245   c5.482,0.663,9.398,5.652,8.737,11.127c-0.603,5.018-4.867,8.802-9.917,8.802c-0.398,0-0.803-0.024-1.205-0.071   c-1.912-0.232-3.726-0.493-5.46-0.778v21.494l-5.689,53.479c-25.617-3.214-45.654-10.587-45.654-22.123V174.6z"></path><rect x="205.482" y="166.952" transform="matrix(0.7071 -0.7071 0.7071 0.7071 -54.8481 203.5858)" width="25.686" height="2.097"></rect><rect x="213.081" y="174.551" transform="matrix(0.7071 -0.7071 0.7071 0.7071 -57.9957 211.1845)" width="25.686" height="2.097"></rect><rect x="200.083" y="170.751" transform="matrix(0.7071 -0.7071 0.7071 0.7071 -56.4207 207.3943)" width="44.084" height="2.097"></rect><rect x="114.614" y="151.618" transform="matrix(0.7071 -0.7071 0.7071 0.7071 -70.6204 134.8412)" width="25.687" height="2.097"></rect><rect x="122.213" y="159.218" transform="matrix(0.7071 -0.7071 0.7071 0.7071 -73.7682 142.44)" width="25.686" height="2.096"></rect><rect x="109.214" y="155.418" transform="matrix(0.7071 -0.7071 0.7071 0.7071 -72.1936 138.6335)" width="44.085" height="2.097"></rect><polygon points="174.325,438.113 177.285,437.648 172.853,409.396 189.332,424.122 192.07,421.057 171.847,402.985    170.799,396.305 167.841,396.768 168.322,399.835 166.537,398.24 163.798,401.305 169.327,406.246  "></polygon><polygon points="49.384,404.226 44.952,408.205 47.697,411.264 52.252,407.175 56.74,411.789 58.887,409.701 54.482,405.172    73.178,388.387 70.43,385.328 51.613,402.224 29.707,379.701 27.56,381.791  "></polygon><polygon points="264.888,395.09 263.69,399.022 289.943,407.019 312.707,429.376 314.807,427.237 296.14,408.906 296.447,409    297.646,405.067 289.796,402.677 284.947,397.915 282.849,400.051 283.601,400.79  "></polygon><path d="M150.965,257.541c0.325,0.039,0.649,0.059,0.969,0.059c3.991,0,7.443-2.981,7.933-7.041   c0.529-4.388-2.598-8.373-6.984-8.902c-1.83-0.215-3.525-0.46-5.093-0.726l0.106,0.078l0.148,0.1   c-0.011,0.015-0.034,0.047-0.066,0.101c-0.066,0.105-0.174,0.283-0.315,0.547c-0.184,0.341-0.428,0.84-0.706,1.48   c2.144,1.165,3.461,3.273,3.165,5.48c-0.361,2.671-2.965,4.581-6.066,4.64c-0.182,0.951-0.356,1.974-0.522,3.057   C145.835,256.84,148.295,257.217,150.965,257.541z"></path><circle cx="166.924" cy="192.434" r="22.5"></circle><ellipse cx="143.424" cy="247.641" rx="4.667" ry="3.75"></ellipse><path d="M278.244,301.168l1.024,3.867c1.563-0.415,3.167-0.819,4.802-1.205l-0.919-3.893   C281.479,300.332,279.837,300.744,278.244,301.168z"></path><path d="M291.091,298.273c-1.674,0.305-3.336,0.639-4.975,0.992l0.849,3.911c1.596-0.347,3.213-0.671,4.839-0.966L291.091,298.273z   "></path><path d="M329.651,353.066l-3.635-1.672c-0.665,1.448-1.376,2.937-2.128,4.464l3.586,1.769   C328.244,356.071,328.969,354.55,329.651,353.066z"></path><path d="M276.4,305.818l-1.084-3.852c-1.685,0.477-3.307,0.957-4.846,1.429l1.175,3.825   C273.157,306.755,274.748,306.283,276.4,305.818z"></path><path d="M317.926,301.299c1.603,0.308,3.116,0.711,4.527,1.216l1.345-3.766c-1.628-0.584-3.342-1.036-5.117-1.378L317.926,301.299z   "></path><path d="M268.806,308.113l-1.227-3.805c-1.747,0.562-3.353,1.104-4.793,1.604l1.316,3.779   C265.514,309.2,267.092,308.667,268.806,308.113z"></path><path d="M335.569,337.939l-3.818-1.189c-0.463,1.488-0.987,3.033-1.575,4.639l3.755,1.376   C334.541,341.102,335.087,339.493,335.569,337.939z"></path><path d="M331.355,303.018c-1.383-1.189-2.921-2.184-4.576-3.009l-1.784,3.582c1.392,0.694,2.646,1.51,3.755,2.462L331.355,303.018z   "></path><path d="M338.567,321.713l-3.998-0.092h-0.002c-0.033,1.477-0.165,3.06-0.399,4.747l3.958,0.555   C338.383,325.095,338.528,323.361,338.567,321.713z"></path><path d="M332.903,311.715l3.672-1.591c-0.764-1.76-1.734-3.338-2.884-4.727l-3.083,2.546   C331.517,309.044,332.284,310.288,332.903,311.715z"></path><path d="M307.313,296.52c-1.688,0.033-3.398,0.123-5.119,0.264l0.324,3.985v0.002c1.646-0.134,3.274-0.219,4.872-0.25   L307.313,296.52z"></path><path d="M299.143,297.079c-1.681,0.189-3.366,0.419-5.045,0.685l0.623,3.95c1.624-0.255,3.252-0.479,4.87-0.661L299.143,297.079z"></path><path d="M327.231,348.692l3.663,1.602c0.702-1.604,1.352-3.165,1.95-4.681l-3.72-1.47   C328.545,345.614,327.913,347.13,327.231,348.692z"></path><path d="M334.512,318.803l3.99-0.266c-0.128-1.898-0.413-3.665-0.852-5.307l-3.865,1.034   C334.152,315.632,334.4,317.142,334.512,318.803z"></path><path d="M310.302,300.527H310.3c1.65,0.042,3.257,0.151,4.802,0.336l0.474-3.97c-1.683-0.202-3.412-0.32-5.172-0.364   L310.302,300.527z"></path><path d="M337.613,329.986l-3.927-0.77c-0.294,1.499-0.665,3.072-1.114,4.723l3.86,1.053   C336.906,333.254,337.297,331.586,337.613,329.986z"></path><path d="M318.316,374.437l-3.443-2.032v-0.002c-0.823,1.396-1.677,2.815-2.559,4.262l3.415,2.085   C316.62,377.285,317.482,375.85,318.316,374.437z"></path><path d="M286.857,266.879c1.772-0.266,0.035-1.729-1.041-1.568c-14.512,2.172-12.518-23.463,1.367-17.557   c0.443,0.188,1.99,0.414,1.85-0.486c-1.252-8.051,3.244-14.57,11.897-12.688c3.01,0.652,5.867,2.406,7.389,5.127   c1.898,3.404-0.346,7.043-2.736,9.461c-0.775,0.783,1.543,1.436,2.051,1.24c5.459-2.105,10.768-1.006,11.291,5.525   c0.389,4.873-3.332,8.746-8.195,7.207c-1.266-0.402-2.072,0.68-0.697,1.322c4.25,1.992,5.295,6.053,2.484,9.758   c-3.719,4.902-9.863,3.451-13.678-0.393c-0.326-0.332-1.125-0.473-1.709-0.397c0.799-0.783,1.547-1.619,2.219-2.521   c0.336-0.449-1.479-2.279-1.449-2.318c-3.42,4.6-8.713,7.668-14.254,9.172c3.297-3.467,6.797-7.807,6.733-11.969   c-0.01-0.746-1.475-1.932-1.479-2.186c0.082,5.479-6.271,11.416-9.867,15.051c-0.225,0.227,1.1,2.357,1.449,2.318   c5.715-0.654,11.629-2.98,15.996-6.928c0.041,0.1,0.111,0.207,0.234,0.332c4.354,4.387,11.623,6.727,16.85,2.248   c4.361-3.734,3.867-8.436,0.355-11.541c4.715-0.152,8.061-3.922,7.621-9.406c-0.516-6.449-6.301-8.4-11.701-7.707   c4.121-6.35-0.596-12.594-8.059-14.711c-3.686-1.043-7.949-0.865-11.285,1.123c-4.022,2.399-4.719,7.18-4.262,11.465   c-6.504-1.815-12.576,1.088-13.221,8.719C272.322,262.727,279.129,268.033,286.857,266.879z"></path><path d="M291.201,260.656c4.105-2.627,9.828-1.066,11.543,3.729c0.367,1.027,1.723,2.051,1.088,0.281   c-2.014-5.635-8.053-10.16-13.824-6.473C289.408,258.578,290.719,260.961,291.201,260.656z"></path><path d="M33.041,249.422c-3.512,3.105-4.006,7.807,0.355,11.541c5.227,4.479,12.496,2.139,16.85-2.248   c0.123-0.125,0.193-0.232,0.234-0.332c4.367,3.947,10.281,6.274,15.996,6.928c0.35,0.039,1.674-2.092,1.449-2.318   c-3.596-3.635-9.949-9.572-9.867-15.051c-0.004,0.254-1.469,1.439-1.478,2.186c-0.065,4.162,3.435,8.502,6.732,11.969   c-5.541-1.504-10.834-4.572-14.254-9.172c0.029,0.039-1.785,1.869-1.449,2.318c0.672,0.902,1.42,1.738,2.219,2.521   c-0.584-0.076-1.383,0.065-1.709,0.397c-3.814,3.844-9.959,5.295-13.678,0.393c-2.81-3.705-1.766-7.766,2.484-9.758   c1.375-0.643,0.568-1.725-0.697-1.322c-4.863,1.539-8.584-2.334-8.195-7.207c0.524-6.531,5.832-7.631,11.291-5.525   c0.508,0.195,2.826-0.457,2.051-1.24c-2.391-2.418-4.635-6.057-2.736-9.461c1.521-2.721,4.379-4.475,7.389-5.127   c8.652-1.882,13.148,4.637,11.896,12.687c-0.141,0.9,1.406,0.674,1.85,0.486c13.885-5.906,15.879,19.729,1.367,17.557   c-1.076-0.16-2.813,1.303-1.041,1.568c7.729,1.154,14.535-4.152,13.848-12.306c-0.645-7.632-6.717-10.534-13.221-8.72   c0.457-4.285-0.24-9.066-4.262-11.465c-3.336-1.988-7.6-2.166-11.285-1.123c-7.463,2.117-12.18,8.361-8.059,14.711   c-5.4-0.693-11.186,1.258-11.701,7.707C24.981,245.5,28.326,249.27,33.041,249.422z"></path><path d="M43.125,248.998c-0.635,1.77,0.721,0.746,1.088-0.281c1.715-4.795,7.438-6.355,11.543-3.729   c0.482,0.305,1.793-2.078,1.193-2.463C51.178,238.838,45.139,243.364,43.125,248.998z"></path><polygon points="182.209,56.723 201.637,27.015 188.045,25.896 199.59,2.204 194.115,0 182.065,29.665 194.348,29.816    180.981,56.163  "></polygon><polygon points="209.924,49.6 189.039,63.321 189.705,64.245 216.455,50.604 206.941,44.068 225.375,31.529 222.285,27.61    200.969,44.324  "></polygon><polygon points="168.725,32.256 168.129,56.854 169.246,56.838 173.195,27.534 162.574,31.567 162.752,9.618 157.842,9.924    159.434,36.546  "></polygon></g></svg>